<?xml version="1.0" encoding="utf-8"?>
<!-- Generator: Adobe Illustrator 24.0.3, SVG Export Plug-In . SVG Version: 6.00 Build 0)  -->
<svg version="1.1" id="Слой_1" xmlns="http://www.w3.org/2000/svg" xmlns:xlink="http://www.w3.org/1999/xlink" x="0px" y="0px"
	 viewBox="0 0 323 480" style="enable-background:new 0 0 323 480;" xml:space="preserve">
<style type="text/css">
	.st0{fill:#FFFFFF;}
</style>
<g id="small-words">
	<path class="st0" d="M323,479.3h-6.9l-12.9-26l-3.5,5.9v20.1h-6.7v-59.8h6.7v28.9l16-28.9h6.8l-15.2,27.2L323,479.3z"/>
	<path class="st0" d="M272.1,419.5h-9.7L251,479.3h6.2l2.3-12h15.2l2.3,12h6.7L272.1,419.5z M260.3,461.5l6.6-34.5l6.8,34.5
		L260.3,461.5z"/>
	<path class="st0" d="M228.3,418.9c-9.2,0-13.7,5.9-13.7,15v30.9c0,9,4.6,15,13.7,15s13.8-6,13.8-15v-30.9
		C242.1,424.8,237.6,418.9,228.3,418.9z M235.4,465.2c0,5.5-2.2,8.6-7.1,8.6s-7.1-3.2-7.1-8.6v-31.6c0-5.4,2.3-8.6,7.1-8.6
		s7.1,3.2,7.1,8.6V465.2z"/>
</g>
<g id="lines">
	<path class="st0" d="M136.4,480h-3.8V56.8h3.8V480z"/>
	<path class="st0" d="M70.1,480h-3.8V113.5h3.8V480z"/>
	<path class="st0" d="M3.8,258H0v-87.8h3.8V258z"/>
	<path class="st0" d="M202.8,480H199V0h3.8L202.8,480z"/>
</g>
<g id="large-words">
	<path class="st0" d="M37.9,290.4c0,18-8.7,29.8-26.9,29.8c-3.7,0.1-7.5-0.5-11-1.8v-14.9c2.3,3,5.8,4.5,10.6,4.5
		c9.6,0,14-6.3,14-17c0-15.4-13.4-22.7-24.6-32.6v-59.1h3.8c2.4-0.5,4.9-0.8,7.3-0.7c18.1,0,26.6,11.7,26.6,29.8v3.4H25.1v-4.1
		c0-10.7-4.1-17-13.6-17c-2.7-0.1-5.4,0.6-7.7,2v30.9C15,257.4,37.9,265,37.9,290.4z"/>
	<path class="st0" d="M143.2,319h-10.6V199.8h10.6c18.6,0,27.1,11.2,27.1,29.6v60.1C170.3,307.8,161.8,319,143.2,319L143.2,319z
		 M157.2,228.8c0-10.9-4.6-16.9-14.3-16.9h-6.4v95h6.5c9.6,0,14.2-6,14.2-16.9L157.2,228.8z"/>
	<path class="st0" d="M76.7,319H66.3V199.8H76c18.6,0,25.9,8.9,25.9,26.4v5.6c0,12.6-3.6,20.4-14,23.7c11.6,3.2,16,12.4,16,25.5v10
		C104,309,95.3,319,76.7,319z M88.8,234.6v-7c0-10.6-3.6-15.7-13.1-15.7h-5.6v38.5h2.7C83.4,250.4,88.8,247,88.8,234.6L88.8,234.6z
		 M90.8,280.2c0-13.3-5.3-17.7-16.7-17.7h-4v44.4h6.6c9.7,0,14.2-5.1,14.2-16.2L90.8,280.2z"/>
</g>
</svg>
