<svg xmlns="http://www.w3.org/2000/svg" viewBox="0 0 80.76 120.01"><defs><style>.cls-1{fill:#fff;}</style></defs><title>logo-small</title><g id="Слой_2" data-name="Слой 2"><g id="Слой_1-2" data-name="Слой 1"><path class="cls-1" d="M22,63.87c2.6-.81,3.49-2.77,3.49-5.91V56.55c0-4.38-1.83-6.6-6.47-6.6H17.52V28.37h-.94V120h.94V79.75h1.65c4.65,0,6.82-2.51,6.82-7V70.26C26,67,24.89,64.68,22,63.87ZM17.53,53h1.39c2.39,0,3.28,1.27,3.28,3.91v1.75c0,3.1-1.36,4-4,4h-.67Zm5.18,19.7c0,2.77-1.11,4-3.54,4H17.52V65.62h1c2.86,0,4.18,1.1,4.18,4.42Z"/><path class="cls-1" d="M1,60.89V53.17a3.48,3.48,0,0,1,1.92-.49c2.39,0,3.41,1.57,3.41,4.25v1H9.43V57.1c0-4.51-2.13-7.44-6.65-7.44A8.06,8.06,0,0,0,1,49.84V42.56H0v22c2.81,2.49,6.15,4.32,6.15,8.16C6.15,75.45,5,77,2.65,77A3.18,3.18,0,0,1,0,75.89V79.6a7.91,7.91,0,0,0,2.74.45c4.56,0,6.73-2.94,6.73-7.45C9.47,66.25,3.74,64.34,1,60.89Z"/><path class="cls-1" d="M35.79,50H34.1V14.19h-1V120h1V79.75h1.69c4.65,0,6.78-2.81,6.78-7.36v-15C42.57,52.76,40.44,50,35.79,50Zm3.5,22.56c0,2.73-1.15,4.22-3.54,4.22H34.1V53h1.61c2.43,0,3.58,1.49,3.58,4.21Z"/><path class="cls-1" d="M65.6,104.87l-2.87,14.95h1.54l.58-3h3.8l.57,3H70.9L68,104.87Zm-.53,10.5,1.64-8.63,1.7,8.63Z"/><polygon class="cls-1" points="50.68 93.35 50.68 49.83 50.68 46.28 50.68 0 49.73 0 49.73 120.01 50.68 120.01 50.68 93.35 50.68 93.35"/><polygon class="cls-1" points="76.83 111.68 80.63 104.86 78.93 104.86 74.95 112.08 74.95 104.87 73.27 104.87 73.27 119.82 74.95 119.82 74.95 114.8 75.83 113.32 79.04 119.82 80.75 119.82 76.83 111.68"/><path class="cls-1" d="M57.07,104.71c-2.29,0-3.43,1.48-3.43,3.76v7.74c0,2.26,1.14,3.75,3.43,3.75h0c2.32,0,3.45-1.5,3.45-3.76v-7.74C60.52,106.19,59.39,104.71,57.07,104.71Zm1.78,11.58c0,1.37-.56,2.16-1.78,2.16s-1.78-.79-1.78-2.16v-7.9c0-1.35.58-2.16,1.78-2.16s1.78.81,1.78,2.16Z"/></g></g></svg>